<mxfile host="app.diagrams.net" modified="2020-08-04T01:25:50.682Z" agent="5.0 (Windows NT 10.0; Win64; x64) AppleWebKit/537.36 (KHTML, like Gecko) Chrome/84.0.4147.105 Safari/537.36" etag="a9hdSr2VA29s8JAbVtya" version="13.5.9" type="github">
  <diagram name="Page-1" id="929967ad-93f9-6ef4-fab6-5d389245f69c">
    <mxGraphModel dx="868" dy="401" grid="1" gridSize="10" guides="1" tooltips="1" connect="1" arrows="1" fold="1" page="1" pageScale="1.5" pageWidth="1169" pageHeight="826" background="none" math="0" shadow="0">
      <root>
        <mxCell id="0" style=";html=1;" />
        <mxCell id="1" style=";html=1;" parent="0" />
        <mxCell id="1672d66443f91eb5-1" value="&lt;p style=&quot;margin: 0px ; margin-top: 4px ; margin-left: 10px ; text-align: left&quot;&gt;&lt;b&gt;req&lt;/b&gt;&amp;nbsp;[package] HSUVRequirements[HSUV Specification]&lt;/p&gt;" style="html=1;strokeWidth=1;shape=mxgraph.sysml.package;html=1;overflow=fill;whiteSpace=wrap;fillColor=none;gradientColor=none;fontSize=12;align=center;labelX=327.64;" parent="1" vertex="1">
          <mxGeometry x="270" y="310" width="1120" height="650" as="geometry" />
        </mxCell>
        <mxCell id="1672d66443f91eb5-2" value="Employee Badge" style="shape=folder;tabWidth=80;tabHeight=20;tabPosition=left;strokeWidth=1;html=1;whiteSpace=wrap;align=center;fontSize=12;fontStyle=1" parent="1" vertex="1">
          <mxGeometry x="410" y="405" width="160" height="90" as="geometry" />
        </mxCell>
        <mxCell id="1672d66443f91eb5-3" value="&lt;b&gt;TimeKeeping System&lt;/b&gt;" style="shape=note;size=15;align=left;spacingLeft=10;html=1;whiteSpace=wrap;strokeColor=#000000;strokeWidth=1;fillColor=#ffffff;fontSize=12;" parent="1" vertex="1">
          <mxGeometry x="877" y="430" width="183" height="60" as="geometry" />
        </mxCell>
        <mxCell id="1672d66443f91eb5-4" value="&lt;p&gt;Employee&lt;/p&gt;&lt;p&gt;&lt;br&gt;&lt;/p&gt;" style="shape=rect;html=1;overflow=fill;whiteSpace=wrap;align=center;fontStyle=1" parent="1" vertex="1">
          <mxGeometry x="397" y="535" width="160" height="45" as="geometry" />
        </mxCell>
        <mxCell id="1672d66443f91eb5-5" value="&lt;p&gt;TimeKeeping Report&lt;/p&gt;" style="shape=rect;html=1;overflow=fill;whiteSpace=wrap;align=center;fontStyle=1" parent="1" vertex="1">
          <mxGeometry x="640" y="425" width="160" height="70" as="geometry" />
        </mxCell>
        <mxCell id="1672d66443f91eb5-6" value="&lt;p&gt;&lt;span&gt;Break&lt;/span&gt;&lt;br&gt;&lt;/p&gt;" style="shape=rect;html=1;overflow=fill;whiteSpace=wrap;align=center;fontStyle=1" parent="1" vertex="1">
          <mxGeometry x="878.5" y="522.5" width="160" height="70" as="geometry" />
        </mxCell>
        <mxCell id="1672d66443f91eb5-7" value="&lt;p&gt;TimeKeeper&lt;/p&gt;" style="shape=rect;html=1;overflow=fill;whiteSpace=wrap;align=center;fontStyle=1" parent="1" vertex="1">
          <mxGeometry x="270" y="750" width="160" height="70" as="geometry" />
        </mxCell>
        <mxCell id="1672d66443f91eb5-8" value="&lt;p&gt;Supervisor&lt;/p&gt;" style="shape=rect;html=1;overflow=fill;whiteSpace=wrap;align=center;fontStyle=1" parent="1" vertex="1">
          <mxGeometry x="450" y="750" width="160" height="70" as="geometry" />
        </mxCell>
        <mxCell id="1672d66443f91eb5-9" value="&lt;p&gt;TimeKeeping Event&lt;/p&gt;&lt;p&gt;&lt;br&gt;&lt;/p&gt;" style="shape=rect;html=1;overflow=fill;whiteSpace=wrap;align=center;fontStyle=1" parent="1" vertex="1">
          <mxGeometry x="660" y="522.5" width="160" height="70" as="geometry" />
        </mxCell>
        <mxCell id="1672d66443f91eb5-11" value="&lt;b&gt;Shift&lt;/b&gt;" style="shape=note;size=15;align=center;spacingLeft=10;html=1;whiteSpace=wrap;strokeWidth=1;fontSize=12;" parent="1" vertex="1">
          <mxGeometry x="878.5" y="620" width="78" height="60" as="geometry" />
        </mxCell>
        <mxCell id="1672d66443f91eb5-12" value="&lt;b&gt;Payroll System&lt;/b&gt;" style="shape=note;size=15;align=left;spacingLeft=10;html=1;whiteSpace=wrap;strokeWidth=1;fontSize=12;" parent="1" vertex="1">
          <mxGeometry x="878.5" y="730" width="210" height="60" as="geometry" />
        </mxCell>
        <mxCell id="1672d66443f91eb5-23" value="Title" style="text;strokeColor=none;fillColor=none;html=1;fontSize=24;fontStyle=1;verticalAlign=middle;align=center;" parent="1" vertex="1">
          <mxGeometry x="120" y="40" width="1510" height="40" as="geometry" />
        </mxCell>
        <mxCell id="B_VWLV56VrWd8KHyhiyz-1" value="" style="endArrow=classic;html=1;entryX=0.144;entryY=1;entryDx=0;entryDy=0;entryPerimeter=0;exitX=0.196;exitY=0.677;exitDx=0;exitDy=0;exitPerimeter=0;" edge="1" parent="1" source="1672d66443f91eb5-1" target="1672d66443f91eb5-4">
          <mxGeometry width="50" height="50" relative="1" as="geometry">
            <mxPoint x="460" y="690" as="sourcePoint" />
            <mxPoint x="500" y="650" as="targetPoint" />
            <Array as="points">
              <mxPoint x="490" y="680" />
              <mxPoint x="420" y="680" />
            </Array>
          </mxGeometry>
        </mxCell>
        <mxCell id="B_VWLV56VrWd8KHyhiyz-2" value="" style="endArrow=classic;html=1;entryX=0.071;entryY=0.677;entryDx=0;entryDy=0;entryPerimeter=0;" edge="1" parent="1" target="1672d66443f91eb5-1">
          <mxGeometry width="50" height="50" relative="1" as="geometry">
            <mxPoint x="420" y="590" as="sourcePoint" />
            <mxPoint x="360" y="680" as="targetPoint" />
            <Array as="points">
              <mxPoint x="420" y="680" />
              <mxPoint x="350" y="680" />
            </Array>
          </mxGeometry>
        </mxCell>
        <mxCell id="B_VWLV56VrWd8KHyhiyz-4" value="TimeKeeping Log" style="rounded=0;whiteSpace=wrap;html=1;" vertex="1" parent="1">
          <mxGeometry x="660" y="610" width="120" height="60" as="geometry" />
        </mxCell>
        <mxCell id="B_VWLV56VrWd8KHyhiyz-5" value="PayPeriod" style="rounded=0;whiteSpace=wrap;html=1;" vertex="1" parent="1">
          <mxGeometry x="660" y="760" width="120" height="60" as="geometry" />
        </mxCell>
      </root>
    </mxGraphModel>
  </diagram>
</mxfile>
